<svg width="601" height="85" viewBox="0 0 601 85" fill="none" xmlns="http://www.w3.org/2000/svg">
<g clip-path="url(#clip0_861_165)">
<path fill-rule="evenodd" clip-rule="evenodd" d="M279.318 40.8735L252.39 77.709L226.221 41.8931L253.1 0L279.318 40.8735ZM219.445 52.4614L242.996 84.6925H198.77L219.445 52.4614ZM261.278 84.6925H307.429L285.86 51.0696L261.278 84.6925Z" fill="white"/>
<path d="M0 6.78123H29.4973L28.901 35.0067L62.161 6.78123H97.7253L62.588 36.7869L99.6509 84.0532H65.8673L40.6564 52.9712L28.901 63.7095L29.4973 84.0532H0V6.78123Z" fill="white"/>
<path d="M102.261 6.78122H156.148C162.401 6.69853 168.631 7.57168 174.623 9.37071C179.76 10.879 184.353 13.8499 187.845 17.9241C191.175 21.9055 192.84 27.0763 192.84 33.4368C192.814 36.5859 191.922 39.6666 190.262 42.3382C188.499 45.2373 186.088 47.6839 183.22 49.4835C180.282 51.3818 176.927 52.5318 173.446 52.8337C176.121 55.6093 193.855 83.8347 194.073 84.0208H162.086C161.909 83.8347 148.977 64.2193 143.909 58.7652H130.453L131.162 84.0208H102.261V6.78122ZM152.385 39.5868C155.355 39.5868 157.673 39.0986 159.338 38.1221C161.006 37.1511 161.611 36.5765 161.611 34.7801C161.611 31.7132 160.901 31.7132 159.193 30.6288C157.485 29.5445 155.036 29.6658 151.99 29.6658H131.162V39.5868H152.385Z" fill="white"/>
<path d="M318.636 31.1872H293.482V8.01933H373.248V31.1872H348.069V84.9676H318.636V31.1872Z" fill="white"/>
<path d="M409.368 62.957V55.2856H437.649L450.613 37.4829H409.368V30.0624H460.934V8.01933H379.992V84.9676H462.892V62.957H409.368Z" fill="white"/>
<path d="M496.877 45.6479L464.334 8.01933H500.591L517.987 30.5803L538.621 8.01933H571.535L539.266 45.2432L574 84.9676H537.815L518.075 60.1975L495.854 84.9676H462.819L496.877 45.6479Z" fill="white"/>
</g>
<path d="M589.306 8H590.896L594.634 17.1309H594.763L598.501 8H600.091V19H598.845V10.6426H598.737L595.3 19H594.097L590.659 10.6426H590.552V19H589.306V8Z" fill="white"/>
<path d="M579 9.18164V8H587.25V9.18164H583.791V19H582.459V9.18164H579Z" fill="white"/>
<defs>
<clipPath id="clip0_861_165">
<rect width="574" height="85" fill="white"/>
</clipPath>
</defs>
</svg>
